<svg id="Layer_1" data-name="Layer 1" xmlns="http://www.w3.org/2000/svg" xmlns:xlink="http://www.w3.org/1999/xlink" viewBox="0 0 5514.32 1165.04"><defs><style>.cls-1{fill:url(#radial-gradient);}.cls-2{fill:url(#radial-gradient-2);}</style><radialGradient id="radial-gradient" cx="899.31" cy="1480.52" r="4998.95" gradientTransform="translate(-1125.6) scale(2.29 1)" gradientUnits="userSpaceOnUse"><stop offset="0" stop-color="#000075"/><stop offset="0.16" stop-color="#002489"/><stop offset="0.53" stop-color="#007eba"/><stop offset="1" stop-color="#00fbff"/></radialGradient><radialGradient id="radial-gradient-2" cx="899.44" cy="2011.08" r="4998.95" xlink:href="#radial-gradient"/></defs><g id="Layer_2" data-name="Layer 2"><g id="Layer_9" data-name="Layer 9"><path class="cls-1" d="M-1819.23-84.9c113.36,70.21,236.26,135.74,371.1,197.63,1330.48,582.48,3441.35,582.48,4771.83,0C3458.54,50.84,3581.44-14.69,3694.8-84.9c-1630,463.39-3884,463.39-5514,0" transform="translate(1819.23 84.9)"/></g><path class="cls-2" d="M-1818.94,445.66c113.36,70.21,236.27,135.74,371.11,197.62,1330.47,582.49,3441.34,582.49,4771.82,0,134.84-61.88,257.74-127.41,371.1-197.62-1630,463.38-3884,463.38-5514,0" transform="translate(1819.23 84.9)"/></g></svg>